<?xml version="1.0" encoding="UTF-8"?>
<svg id="Layer_2" data-name="Layer 2" xmlns="http://www.w3.org/2000/svg" viewBox="0 0 575.82 575.82">
  <defs>
    <style>
      .cls-1 {
        fill: #fff;
      }

      .cls-2 {
        fill: #39434c;
      }
    </style>
  </defs>
  <circle class="cls-2" cx="287.91" cy="287.91" r="287.91"/>
  <path class="cls-1" d="m370.09,91.87c7.26,20.18,13.25,42.89,17.87,67.38,1.49,7.87,8.34,13.59,16.35,13.59h81.29c13.25,0,21.18-14.74,13.88-25.8-27.81-42.14-67.77-75.56-114.9-95.27-13.83-5.78-27.61,8.26-21.64,22.01,2.48,5.71,4.87,11.75,7.15,18.1Z"/>
  <path class="cls-1" d="m237.04,399.46c-10.61,0-18.5,9.81-16.25,20.18,3.83,17.67,8.45,34.15,13.81,49.07,14.74,41,34.39,66.47,51.28,66.47s36.54-25.47,51.28-66.47c5.37-14.92,9.98-31.4,13.81-49.07,2.25-10.37-5.64-20.18-16.25-20.18h-97.68Z"/>
  <path class="cls-1" d="m517.29,364.46c7.62,0,14.22-5.19,16.13-12.57,5.33-20.55,8.17-42.09,8.17-64.31,0-23.35-3.14-45.96-9.01-67.44-1.98-7.26-8.54-12.31-16.07-12.31h-103.17c-9.73,0-17.35,8.32-16.57,18.02,1.59,19.61,2.41,39.82,2.41,60.36s-.81,40.67-2.4,60.23c-.78,9.7,6.83,18.02,16.57,18.02h103.94Z"/>
  <path class="cls-1" d="m364.19,286.21c0-21.64-.94-42.85-2.77-63.27-.77-8.56-7.97-15.11-16.56-15.11h-117.95c-8.6,0-15.8,6.54-16.56,15.11-1.83,20.42-2.77,41.63-2.77,63.27s.94,42.76,2.76,63.14c.76,8.56,7.97,15.11,16.56,15.11h117.97c8.6,0,15.8-6.55,16.56-15.11,1.82-20.38,2.76-41.54,2.76-63.14Z"/>
  <path class="cls-1" d="m201.67,480.56c-7.27-20.22-13.27-42.97-17.89-67.5-1.48-7.87-8.33-13.59-16.35-13.59h-82.71c-13.18,0-21.07,14.57-13.97,25.67,28.08,43.87,69.19,78.58,117.87,98.69,13.91,5.74,27.68-8.47,21.51-22.2-2.96-6.58-5.78-13.61-8.46-21.07Z"/>
  <path class="cls-1" d="m55.67,207.84c-7.52,0-14.08,5.06-16.07,12.31-5.87,21.48-9.01,44.09-9.01,67.44s2.84,43.76,8.17,64.31c1.91,7.38,8.51,12.57,16.13,12.57h103.51c9.73,0,17.35-8.32,16.57-18.02-1.58-19.57-2.4-39.74-2.4-60.23s.82-40.75,2.41-60.36c.79-9.7-6.83-18.02-16.57-18.02H55.67Z"/>
  <path class="cls-1" d="m404.33,399.46c-8.01,0-14.86,5.72-16.35,13.59-4.63,24.53-10.63,47.28-17.89,67.5-2.71,7.54-5.56,14.63-8.56,21.28-6.18,13.71,7.57,27.92,21.48,22.21,48.92-20.07,90.24-54.88,118.42-98.91,7.11-11.1-.78-25.67-13.96-25.67h-83.14Z"/>
  <path class="cls-1" d="m334.69,172.84c10.61,0,18.5-9.81,16.25-20.19-3.82-17.62-8.43-34.05-13.78-48.94-14.74-41-34.39-66.47-51.28-66.47s-36.54,25.47-51.28,66.47c-5.35,14.89-9.96,31.32-13.78,48.94-2.25,10.37,5.64,20.19,16.25,20.19h97.62Z"/>
  <path class="cls-1" d="m167.45,172.84c8.01,0,14.86-5.72,16.35-13.59,4.62-24.49,10.61-47.19,17.87-67.38,2.25-6.27,4.61-12.23,7.06-17.88,5.97-13.76-7.84-27.82-21.66-22-46.89,19.73-86.65,53.06-114.35,95.04-7.3,11.06.63,25.8,13.88,25.8h80.86Z"/>
</svg>