<?xml version="1.0" encoding="utf-8"?>
<svg xmlns="http://www.w3.org/2000/svg" viewBox="0 0 500 500" xmlns:bx="https://boxy-svg.com" width="500px" height="500px"><defs><bx:guide x="170.632" y="610.015" angle="90"/><bx:export><bx:file format="svg"/></bx:export><bx:guide x="266.156" y="591.196" angle="90"/><bx:guide x="316.896" y="390.357" angle="90"/><bx:guide x="379.001" y="-57.685" angle="90"/><bx:guide x="96.892" y="569.097" angle="90"/><bx:guide x="248.999" y="339.342" angle="0"/></defs><g transform="matrix(1, 0, 0, 1, -0.258003, -15.398108)" style=""><path style="fill: rgb(243, 243, 243); paint-order: fill; fill-rule: nonzero;" d="M 113.959 392.926 C 113.958 392.993 113.951 393.059 113.938 393.122 C 113.947 393.219 113.951 393.316 113.951 393.413 C 113.951 400.031 93.49 405.422 68.25 405.455 C 43.01 405.486 22.549 400.148 22.549 393.529 C 22.549 393.441 22.552 393.353 22.56 393.267 L 22.549 393.266 L 22.806 357.624 L 114.209 358.284 L 113.959 392.926 Z"/><rect style="fill: rgb(255, 255, 255); transform-box: fill-box; transform-origin: 50% 50%; visibility: hidden;" height="67.604" transform="matrix(1, -0.000006, 0.000006, 1, 14.860116, -19.716165)" x="28.922" y="316.397" width="42.581"/><ellipse style="stroke: rgb(216, 216, 216); paint-order: stroke; fill: rgb(253, 253, 253); stroke-width: 4.5px;" cx="68.25" cy="359.249" rx="43.336" ry="10.223" transform="matrix(0.999999, -0.001276, 0, 1.000001, 0, 0.087081)"/></g><text style="fill: rgb(209, 235, 255); font-family: Arial; font-size: 56px; font-weight: 700; text-transform: capitalize; white-space: pre;" x="50.461" y="344.181">2</text><g transform="matrix(1, 0, 0, 1, 98.12574, 7.48779)" style="visibility: hidden;"><path style="fill: rgb(243, 243, 243); paint-order: fill; fill-rule: nonzero;" transform="matrix(-0.007216, 0.999974, -0.999974, -0.007216, 478.975677, 148.294861)" d="M 198.749 363.471 H 216.57 A 17.822 45.699 0 0 1 234.392 409.17 V 409.17 A 17.822 45.699 0 0 1 216.57 454.868 H 198.749 A 0 0 0 0 1 198.749 454.868 V 363.471 A 0 0 0 0 1 198.749 363.471 Z" bx:shape="rect 198.749 363.471 35.643 91.397 0 0 0 0 90 90 0 90 90 0 0 0 2@1e23a3a0"/><ellipse style="stroke: rgb(216, 216, 216); paint-order: stroke; fill: rgb(253, 253, 253); stroke-width: 4.5px;" cx="68.25" cy="354.062" rx="45.701" ry="10.223"/></g><path style="fill: rgb(243, 243, 243); paint-order: fill; fill-rule: nonzero; stroke-width: 1;" d="M 340.186 378.105 C 340.185 378.172 340.178 378.238 340.165 378.301 C 340.174 378.398 340.178 378.495 340.178 378.592 C 340.178 385.21 319.771 390.601 294.598 390.634 C 269.424 390.665 249.017 385.327 249.017 378.708 C 249.017 378.62 249.02 378.532 249.028 378.446 L 249.017 378.445 L 249.274 342.803 L 340.436 343.463 L 340.186 378.105 Z"/><g transform="matrix(1, 0, 0, 0.94116, 113.353004, -8.52202)" style=""><title>Silo2</title><path style="fill: rgb(243, 243, 243); paint-order: fill; fill-rule: nonzero;" d="M 113.959 406.242 C 113.958 406.334 113.951 406.425 113.938 406.512 C 113.947 406.646 113.951 406.779 113.951 406.912 C 113.951 407.512 113.862 408.104 113.69 408.688 L 113.678 410.415 C 113.677 410.486 113.67 410.556 113.657 410.623 C 113.666 410.726 113.67 410.829 113.67 410.932 C 113.67 417.964 93.209 423.692 67.969 423.727 C 42.729 423.76 22.268 418.088 22.268 411.055 C 22.268 410.962 22.271 410.868 22.279 410.777 L 22.268 410.776 L 22.525 372.906 L 22.726 372.908 L 22.806 357.624 L 114.209 358.532 Z"/><ellipse style="stroke: rgb(216, 216, 216); paint-order: stroke; fill: rgb(253, 253, 253); stroke-width: 4.5px;" cx="68.25" cy="359.249" rx="43.336" ry="10.223" transform="matrix(0.999999, -0.001276, 0, 1.000001, 0, 0.087081)"/></g><g transform="matrix(1, 0, 0, 1, 226.457855, -89.513107)" style=""><title>Silo3</title><path style="fill: rgb(243, 243, 243); paint-order: fill; fill-rule: nonzero;" d="M 113.959 438.355 C 113.958 438.508 113.951 438.659 113.938 438.803 C 113.947 439.025 113.951 439.246 113.951 439.469 C 113.951 440.027 113.923 440.581 113.868 441.131 L 113.749 455.963 C 113.748 456.023 113.741 456.082 113.728 456.138 C 113.737 456.225 113.741 456.312 113.741 456.399 C 113.741 462.336 93.28 467.171 68.04 467.201 C 42.8 467.229 22.339 462.44 22.339 456.503 C 22.339 456.424 22.342 456.346 22.35 456.268 L 22.339 456.267 L 22.596 424.343 L 22.806 357.624 L 114.209 359.134 L 113.959 438.355 Z"/><ellipse style="stroke: rgb(216, 216, 216); paint-order: stroke; fill: rgb(253, 253, 253); stroke-width: 4.5px;" cx="68.25" cy="359.249" rx="43.336" ry="10.223" transform="matrix(0.999999, -0.001276, 0, 1.000001, 0, 0.087081)"/></g><g transform="matrix(1, 0, 0, 1, 342.088135, -132.353195)" style=""><title>Silo4</title><path style="fill: rgb(243, 243, 243); paint-order: fill; fill-rule: nonzero;" d="M 113.959 479.246 C 113.958 479.477 113.951 479.703 113.938 479.921 C 113.947 480.256 113.951 480.589 113.951 480.923 C 113.951 481.998 113.905 483.064 113.816 484.119 L 113.697 506.01 C 113.696 506.099 113.689 506.186 113.676 506.27 C 113.685 506.399 113.689 506.527 113.689 506.656 C 113.689 515.433 93.228 522.582 67.988 522.626 C 42.748 522.667 22.287 515.588 22.287 506.81 C 22.287 506.693 22.29 506.576 22.298 506.462 L 22.287 506.461 L 22.544 459.193 L 22.593 459.193 L 22.806 357.624 L 114.209 359.898 Z"/><ellipse style="stroke: rgb(216, 216, 216); paint-order: stroke; fill: rgb(253, 253, 253); stroke-width: 4.5px;" cx="68.25" cy="359.249" rx="43.336" ry="10.223" transform="matrix(0.999999, -0.001276, 0, 1.000001, 0, 0.087081)"/><path style="fill: rgb(243, 243, 243); paint-order: fill; fill-rule: nonzero; stroke-width: 1;" d="M 113.725 509.373 C 113.724 509.44 113.717 509.505 113.704 509.568 C 113.713 509.665 113.717 509.762 113.717 509.859 C 113.717 516.461 93.259 521.84 68.024 521.873 C 42.787 521.904 22.33 516.578 22.33 509.974 C 22.33 509.887 22.333 509.799 22.341 509.713 L 22.33 509.712 L 22.588 474.152 L 113.976 474.81 L 113.725 509.373 Z"/></g><rect style="fill: rgb(255, 255, 255); stroke-width: 1; transform-origin: 74.876px 350.199px; visibility: hidden;" height="67.604" transform="matrix(1, -0.000006, 0.000006, 1, 107.728267, -52.372581)" x="43.127" y="316.397" width="63.496"/><text style="fill: rgb(163, 216, 254); font-family: Arial; font-size: 56px; font-weight: 700; letter-spacing: -6px; text-transform: capitalize; white-space: pre;" x="151.858" y="328.23">11</text><rect style="fill: rgb(255, 255, 255); stroke-width: 1; transform-origin: 94.871px 350.199px; visibility: hidden;" height="67.604" transform="matrix(1, -0.000006, 0.000006, 1, 200.454692, -113.764905)" x="54.644" y="316.397" width="80.452"/><text style="fill: rgb(92, 187, 254); font-family: Arial; font-size: 56px; font-weight: 700; letter-spacing: -3px; text-transform: capitalize; white-space: pre;" x="258.788" y="268.558">1.5</text><rect style="fill: rgb(255, 255, 255); stroke-width: 1; transform-origin: 94.871px 350.199px; visibility: hidden;" height="67.604" transform="matrix(1, -0.000006, 0.000006, 1, 315.64059, -156.859609)" x="54.644" y="316.397" width="80.452"/><text style="fill: rgb(0, 157, 254); font-family: Arial; font-size: 56px; font-weight: 700; letter-spacing: -3px; text-transform: capitalize; white-space: pre;" x="376.236" y="224.61">5.4</text><text style="fill: rgb(121, 120, 123); font-family: &quot;Arial Black&quot;; font-size: 15px; text-transform: uppercase; white-space: pre;" x="45.101" y="379.136"><title>Days</title>Days</text><text style="fill: rgb(121, 120, 123); font-family: &quot;Arial Black&quot;; font-size: 15px; text-transform: uppercase; white-space: pre; stroke-width: 1;" x="159.065" y="368.461"><title>Days</title>Days</text><text style="fill: rgb(121, 120, 123); font-family: &quot;Arial Black&quot;; font-size: 15px; text-transform: uppercase; white-space: pre; stroke-width: 1;" x="259.359" y="335.953"><title>Days</title>Months</text><text style="fill: rgb(121, 120, 123); font-family: &quot;Arial Black&quot;; font-size: 15px; text-transform: uppercase; white-space: pre; stroke-width: 1;" x="374.364" y="315.061"><title>Days</title>Months</text><g transform="matrix(1, 0, 0, 1, -0.150303, -2.34715)"><path d="M 160.143 250.35 L 160.143 262.059 M 65.154 296.042 L 65.155 250.421 C 65.17 237.097 70.371 224.946 79.068 216.406 C 87.512 207.617 99.496 202.383 112.651 202.348 C 125.807 202.382 137.789 207.619 146.234 216.408 C 154.931 224.949 160.129 237.026 160.143 250.35" style="fill: none; stroke-dasharray: 10; stroke: rgb(147, 148, 155); stroke-width: 2px;"/><path d="M 87.895 59.719 Q 89.771 56.469 91.647 59.719 L 94.596 64.826 Q 96.472 68.076 92.719 68.076 L 86.823 68.076 Q 83.07 68.076 84.946 64.826 Z" bx:shape="triangle 83.07 56.469 13.402 11.607 0.5 0.28 1@a4edf3b2" style="fill: rgb(147, 148, 155); transform-box: fill-box; transform-origin: 50% 50%;" transform="matrix(0.49998, 0.866037, -0.866037, 0.49998, 71.354089, 211.409616)"/></g><g transform="matrix(1, 0, 0, 1, 120.592186, -64.692551)"><path d="M 160.143 266.155 L 160.143 281.72 M 62.052 326.892 L 62.053 266.25 C 62.068 248.539 67.439 232.387 76.42 221.035 C 85.14 209.352 97.515 202.395 111.1 202.348 C 124.686 202.393 137.059 209.355 145.78 221.037 C 154.761 232.391 160.129 248.444 160.143 266.155" style="fill: none; stroke-dasharray: 10; stroke: rgb(147, 148, 155); stroke-width: 2px;"/><path d="M 87.895 59.719 Q 89.771 56.469 91.647 59.719 L 94.596 64.826 Q 96.472 68.076 92.719 68.076 L 86.823 68.076 Q 83.07 68.076 84.946 64.826 Z" bx:shape="triangle 83.07 56.469 13.402 11.607 0.5 0.28 1@a4edf3b2" style="fill: rgb(147, 148, 155); transform-box: fill-box; transform-origin: 50% 50%;" transform="matrix(0.49998, 0.866037, -0.866037, 0.49998, 71.354089, 211.409616)"/></g><g transform="matrix(1, 0, 0, 1, 245.334152, -109.849335)"><path d="M 160.143 265.514 L 160.143 280.922 M 65.154 325.641 L 65.155 265.608 C 65.17 248.075 70.371 232.085 79.068 220.847 C 87.512 209.282 99.496 202.394 112.651 202.348 C 125.807 202.393 137.789 209.284 146.234 220.85 C 154.931 232.089 160.129 247.981 160.143 265.514" style="fill: none; stroke-dasharray: 10; stroke: rgb(147, 148, 155); stroke-width: 2px;"/><path d="M 87.895 59.719 Q 89.771 56.469 91.647 59.719 L 94.596 64.826 Q 96.472 68.076 92.719 68.076 L 86.823 68.076 Q 83.07 68.076 84.946 64.826 Z" bx:shape="triangle 83.07 56.469 13.402 11.607 0.5 0.28 1@a4edf3b2" style="fill: rgb(147, 148, 155); transform-box: fill-box; transform-origin: 50% 50%;" transform="matrix(0.49998, 0.866037, -0.866037, 0.49998, 71.354089, 211.409616)"/></g></svg>
