<?xml version="1.0" encoding="UTF-8" standalone="no"?>
<!-- Created with Inkscape (http://www.inkscape.org/) -->

<svg
   width="78.527451mm"
   height="96.249458mm"
   viewBox="0 0 78.527453 96.249459"
   version="1.1"
   id="svg1"
   xml:space="preserve"
   sodipodi:docname="anki-shield-final.svg"
   inkscape:version="1.4 (e7c3feb1, 2024-10-09)"
   xmlns:inkscape="http://www.inkscape.org/namespaces/inkscape"
   xmlns:sodipodi="http://sodipodi.sourceforge.net/DTD/sodipodi-0.dtd"
   xmlns="http://www.w3.org/2000/svg"
   xmlns:svg="http://www.w3.org/2000/svg"><sodipodi:namedview
     id="namedview1"
     pagecolor="#ffffff"
     bordercolor="#000000"
     borderopacity="0.25"
     inkscape:showpageshadow="2"
     inkscape:pageopacity="0.0"
     inkscape:pagecheckerboard="0"
     inkscape:deskcolor="#d1d1d1"
     inkscape:document-units="mm"
     inkscape:zoom="1"
     inkscape:cx="113"
     inkscape:cy="182"
     inkscape:window-width="1920"
     inkscape:window-height="1027"
     inkscape:window-x="1512"
     inkscape:window-y="25"
     inkscape:window-maximized="0"
     inkscape:current-layer="layer1" /><defs
     id="defs1"><inkscape:path-effect
       effect="fill_between_many"
       method="originald"
       linkedpaths="#path2-4,0,1"
       id="path-effect2"
       is_visible="true"
       lpeversion="0"
       join="true"
       close="true"
       autoreverse="true" /><filter
       inkscape:menu-tooltip="In and out glow with a possible offset and colorizable flood"
       inkscape:menu="Shadows and Glows"
       inkscape:label="Cutout Glow"
       style="color-interpolation-filters:sRGB"
       id="filter20"
       x="-0.070726916"
       y="-0.067345237"
       width="1.1709234"
       height="1.162751"><feOffset
         dy="3"
         dx="3"
         id="feOffset20" /><feGaussianBlur
         stdDeviation="3"
         result="blur"
         id="feGaussianBlur20" /><feFlood
         flood-color="rgb(0,0,0)"
         flood-opacity="1"
         result="flood"
         id="feFlood20" /><feComposite
         in="flood"
         in2="SourceGraphic"
         operator="in"
         result="composite"
         id="feComposite20" /><feBlend
         in="blur"
         in2="composite"
         mode="normal"
         id="feBlend20" /></filter><filter
       inkscape:label="Drop Shadow"
       inkscape:menu="Bumps"
       inkscape:menu-tooltip="Bumps effect with a bevel, color flood and complex lighting"
       style="color-interpolation-filters:sRGB"
       id="filter425"
       x="-0.091395637"
       y="-0.094617151"
       width="1.2058244"
       height="1.2080613"><feGaussianBlur
         stdDeviation="0.48 1.141"
         result="result8"
         id="feGaussianBlur420" /><feComposite
         result="result6"
         in="SourceGraphic"
         operator="in"
         in2="result8"
         id="feComposite420" /><feComposite
         operator="in"
         result="result11"
         in2="result6"
         id="feComposite421" /><feFlood
         result="result10"
         flood-opacity="1"
         flood-color="rgb(255,255,255)"
         id="feFlood421" /><feBlend
         mode="multiply"
         in="result10"
         in2="result11"
         result="result12"
         id="feBlend421" /><feComposite
         result="fbSourceGraphic"
         operator="in"
         in2="SourceGraphic"
         in="result12"
         id="feComposite422" /><feFlood
         result="result6"
         flood-color="rgb(75,101,154)"
         id="feFlood422" /><feComposite
         k3="0.3"
         k2="0.3"
         k1="0.5"
         operator="arithmetic"
         result="result2"
         in="fbSourceGraphic"
         in2="result6"
         id="feComposite423"
         k4="0" /><feColorMatrix
         result="fbSourceGraphicAlpha"
         in="result2"
         values="1 0 0 -1 0 1 0 1 -1 0 1 0 0 -1 0 -0.8 -1 0 3.9 -2.7 "
         type="matrix"
         id="feColorMatrix423" /><feGaussianBlur
         result="result0"
         in="fbSourceGraphicAlpha"
         stdDeviation="0.5"
         id="feGaussianBlur423" /><feDiffuseLighting
         lighting-color="#ffffff"
         diffuseConstant="0.69999999"
         surfaceScale="50"
         result="result13"
         in="result0"
         id="feDiffuseLighting423"><feDistantLight
           elevation="20"
           azimuth="225"
           id="feDistantLight423" /></feDiffuseLighting><feSpecularLighting
         specularExponent="20"
         specularConstant="0.69999999"
         surfaceScale="10"
         lighting-color="#ffffff"
         result="result1"
         in="result0"
         id="feSpecularLighting424"><feDistantLight
           elevation="45"
           azimuth="225"
           id="feDistantLight424" /></feSpecularLighting><feBlend
         mode="screen"
         result="result5"
         in2="SourceGraphic"
         in="result13"
         id="feBlend424" /><feComposite
         in="result1"
         k3="1"
         k2="1"
         operator="arithmetic"
         in2="result5"
         result="result9"
         id="feComposite424"
         k1="0"
         k4="0" /><feGaussianBlur
         result="result15"
         in="result9"
         stdDeviation="0.5"
         id="feGaussianBlur424" /><feComposite
         in2="SourceGraphic"
         operator="in"
         id="feComposite425"
         result="fbSourceGraphic" /><feColorMatrix
         result="fbSourceGraphicAlpha"
         in="fbSourceGraphic"
         values="0 0 0 -1 0 0 0 0 -1 0 0 0 0 -1 0 0 0 0 1 0"
         id="feColorMatrix435" /><feFlood
         id="feFlood435"
         result="flood"
         in="fbSourceGraphic"
         flood-opacity="0.498039"
         flood-color="rgb(0,0,0)" /><feGaussianBlur
         id="feGaussianBlur435"
         result="blur"
         in="fbSourceGraphic"
         stdDeviation="1.000000" /><feOffset
         id="feOffset435"
         result="offset"
         in="blur"
         dx="1.500000"
         dy="1.500000" /><feComposite
         id="feComposite435"
         result="comp1"
         operator="in"
         in="flood"
         in2="offset" /><feComposite
         id="feComposite436"
         result="comp2"
         operator="over"
         in="fbSourceGraphic"
         in2="comp1" /></filter></defs><g
     inkscape:label="Layer 1"
     inkscape:groupmode="layer"
     id="layer1"
     transform="translate(-57.454342,-204.46158)"><path
       d="m 64.922652,211.99998 c -0.402134,2.76525 -11.220631,61.41901 31.331421,79.67266 42.552057,-18.25365 30.364487,-76.90741 31.459057,-79.67266 -8.66605,7.09042 -20.02833,9.79712 -31.395495,4.76147 0.02137,-0.009 0.04271,-0.0163 0.06408,-0.0258 h -0.127641 v 0.0517 c -11.345763,4.99715 -22.681652,2.28979 -31.331421,-4.7873 z"
       style="baseline-shift:baseline;display:inline;overflow:visible;vector-effect:none;fill:#cccccc;filter:url(#filter425);enable-background:accumulate;stop-color:#000000;stop-opacity:1"
       id="path158"
       sodipodi:nodetypes="ccccccccc" /><g
       id="g18"
       transform="matrix(0.0689019,0,0,0.0689019,76.456593,229.56537)"><g
         id="g62"
         inkscape:export-filename="/home/tim/development/ankidroid-timrae/AnkiDroid/src/main/res/drawable-xxxhdpi/product_logo_144dp.png"
         inkscape:export-xdpi="416.94742"
         inkscape:export-ydpi="416.94742"
         transform="matrix(4.8341729,0,0,4.8341729,-281.34886,-288.1167)"><g
           id="g64"><g
             id="inner_11_"
             style="filter:url(#filter20)"
             transform="translate(-1.5886898)"><linearGradient
               gradientTransform="matrix(1,0,0,-1,-2.5776197,192)"
               y2="40.880001"
               x2="170.66859"
               y1="93.285301"
               x1="79.900101"
               gradientUnits="userSpaceOnUse"
               id="SVGID_1_"><stop
                 id="stop70"
                 style="stop-color:#cccccc;stop-opacity:1;"
                 offset="0" /><stop
                 id="stop72"
                 style="stop-color:#555555;stop-opacity:1;"
                 offset="1" /></linearGradient><path
               inkscape:connector-curvature="0"
               style="fill:url(#SVGID_1_)"
               id="path74"
               d="m 103.12238,68.2 c 0.4,-0.1 1.2,-0.1 3.1,1.5 1.9,1.6 4.3,4.4 6.8,7.5 2.4,3.1 4.9,6.6 7.6,9.5 2.6,3 5.2,5.7 9,6.9 4,1.3 8,0.7 11.4,-0.3 3.9,-0.9 7.9,-2.1 11.7,-3.2 3.8,-1.1 7.4,-2 9.9,-2.1 2.5,-0.2 3.2,0.3 3.4,0.6 0.2,0.3 0.4,0.8 -0.2,2.6 -0.6,1.8 -2,4.5 -3.8,7.2 -2.3,3.5 -5.1,7.4 -7.5,11.2 -2.4,3.8 -4.6,7.5 -4.6,12 0,4 1.8,7.3 3.8,10.7 2,3.4 4.5,6.9 6.7,10.2 2.2,3.3 4.1,6.4 5.1,8.8 0.9,2.3 0.7,3.1 0.5,3.4 -0.2,0.3 -0.9,0.7 -3.4,0.6 -2.5,-0.2 -6.1,-1 -9.9,-2.1 -3.8,-1.1 -7.9,-2.4 -11.7,-3.3 -3.9,-0.9 -7.6,-1.5 -11.4,-0.3 -3.8,1.2 -6.4,3.9 -9,6.9 -2.6,3 -5.2,6.4 -7.6,9.5 -2.4,3.1 -4.9,5.9 -6.8,7.5 -1.9,1.6 -2.7,1.7 -3.1,1.5 -0.4,-0.1 -1,-0.6 -1.6,-3.1 -0.6,-2.5 -0.9,-6.1 -1,-10.1 -0.1,-4 -0.2,-8.2 -0.5,-12.2 -0.399999,-4 -0.899999,-7.7 -3.2,-10.9 -2.3,-3.2 -5.7,-4.9 -9.3,-6.5 -3.6,-1.6 -7.7,-2.9 -11.4,-4.3 -3.7,-1.4 -7.1,-2.8 -9.3,-4.1 -2.1,-1.4 -2.4,-2.1 -2.4,-2.5 0,-0.4 0.3,-1.1 2.4,-2.4 2.2,-1.4 5.7,-2.9 9.3,-4.1 3.7,-1.4 7.8,-2.7 11.4,-4.3 3.6,-1.6 7,-3.2 9.3,-6.4 2.300001,-3.2 2.900001,-7 3.3,-10.9 0.4,-3.9 0.4,-8.2 0.6,-12.2 0.1,-4 0.4,-7.6 1.1,-10.1 0.3,-2.1 0.9,-2.6 1.3,-2.7 z"
               sodipodi:nodetypes="ssccccscsscsssscscscsssscsscssscsccsssccs" /></g></g></g></g></g></svg>
