<?xml version="1.0" encoding="UTF-8" standalone="no"?>
<!-- Created with Inkscape (http://www.inkscape.org/) -->

<svg
   width="72.37146mm"
   height="86.920654mm"
   viewBox="0 0 72.371458 86.920654"
   version="1.1"
   id="svg1"
   xml:space="preserve"
   sodipodi:docname="anki-shield.svg"
   inkscape:version="1.4 (e7c3feb1, 2024-10-09)"
   xmlns:inkscape="http://www.inkscape.org/namespaces/inkscape"
   xmlns:sodipodi="http://sodipodi.sourceforge.net/DTD/sodipodi-0.dtd"
   xmlns="http://www.w3.org/2000/svg"
   xmlns:svg="http://www.w3.org/2000/svg"><sodipodi:namedview
     id="namedview1"
     pagecolor="#ffffff"
     bordercolor="#000000"
     borderopacity="0.25"
     inkscape:showpageshadow="2"
     inkscape:pageopacity="0.0"
     inkscape:pagecheckerboard="0"
     inkscape:deskcolor="#d1d1d1"
     inkscape:document-units="mm"
     inkscape:zoom="0.70710678"
     inkscape:cx="-91.923881"
     inkscape:cy="66.468037"
     inkscape:window-width="1920"
     inkscape:window-height="1027"
     inkscape:window-x="1512"
     inkscape:window-y="25"
     inkscape:window-maximized="0"
     inkscape:current-layer="layer1" /><defs
     id="defs1"><inkscape:path-effect
       effect="fill_between_many"
       method="originald"
       linkedpaths="#path2-4,0,1"
       id="path-effect2"
       is_visible="true"
       lpeversion="0"
       join="true"
       close="true"
       autoreverse="true" /><filter
       inkscape:menu-tooltip="In and out glow with a possible offset and colorizable flood"
       inkscape:menu="Shadows and Glows"
       inkscape:label="Cutout Glow"
       style="color-interpolation-filters:sRGB"
       id="filter20"
       x="-0.070726916"
       y="-0.067345237"
       width="1.1709234"
       height="1.162751"><feOffset
         dy="3"
         dx="3"
         id="feOffset20" /><feGaussianBlur
         stdDeviation="3"
         result="blur"
         id="feGaussianBlur20" /><feFlood
         flood-color="rgb(0,0,0)"
         flood-opacity="1"
         result="flood"
         id="feFlood20" /><feComposite
         in="flood"
         in2="SourceGraphic"
         operator="in"
         result="composite"
         id="feComposite20" /><feBlend
         in="blur"
         in2="composite"
         mode="normal"
         id="feBlend20" /></filter><filter
       inkscape:label="Light Contour"
       inkscape:menu="Image Paint and Draw"
       inkscape:menu-tooltip="Uses vertical specular light to draw lines"
       style="color-interpolation-filters:sRGB"
       id="filter248"
       x="-0.05564815"
       y="-0.045486118"
       width="1.1112963"
       height="1.0909722"><feGaussianBlur
         in="SourceGraphic"
         stdDeviation="1.5"
         result="result3"
         id="feGaussianBlur246" /><feComponentTransfer
         result="result1"
         in="result3"
         id="feComponentTransfer246"><feFuncR
           type="discrete"
           tableValues="0 0.1 0.2 0.3 0.4 0.5 0.6 0.7 0.8 0.9 1"
           id="feFuncR246" /><feFuncG
           type="discrete"
           tableValues="0 0.1 0.2 0.3 0.4 0.5 0.6 0.7 0.8 0.9 1"
           id="feFuncG246" /><feFuncB
           type="discrete"
           tableValues="0 0.1 0.2 0.3 0.4 0.5 0.6 0.7 0.8 0.9 1"
           id="feFuncB246" /></feComponentTransfer><feGaussianBlur
         result="result5"
         stdDeviation="0.01"
         id="feGaussianBlur247" /><feBlend
         in2="result5"
         result="result6"
         mode="lighten"
         in="result5"
         id="feBlend247" /><feColorMatrix
         in="result6"
         type="luminanceToAlpha"
         result="result2"
         id="feColorMatrix247" /><feSpecularLighting
         surfaceScale="5"
         result="result9"
         specularExponent="20"
         in="result2"
         specularConstant="1"
         id="feSpecularLighting247"><feDistantLight
           azimuth="180"
           elevation="90"
           id="feDistantLight247" /></feSpecularLighting><feComposite
         in2="result6"
         operator="arithmetic"
         in="result9"
         k1="0.4"
         k3="0.7"
         result="result3"
         id="feComposite247"
         k2="0"
         k4="0" /><feBlend
         in2="result1"
         in="result3"
         mode="normal"
         result="result8"
         id="feBlend248" /><feComposite
         in2="SourceGraphic"
         in="result8"
         operator="in"
         result="result7"
         id="feComposite248" /></filter></defs><g
     inkscape:label="Layer 1"
     inkscape:groupmode="layer"
     id="layer1"
     transform="translate(-59.782342,-208.37598)"><path
       d="m 64.922652,211.99998 c -0.402134,2.76525 -11.220631,61.41901 31.331421,79.67266 42.552057,-18.25365 30.364487,-76.90741 31.459057,-79.67266 -8.66605,7.09042 -20.02833,9.79712 -31.395495,4.76147 0.02137,-0.009 0.04271,-0.0163 0.06408,-0.0258 h -0.127641 v 0.0517 c -11.345763,4.99715 -22.681652,2.28979 -31.331421,-4.7873 z"
       style="baseline-shift:baseline;display:inline;overflow:visible;vector-effect:none;fill:#b3b3b3;filter:url(#filter248);enable-background:accumulate;stop-color:#000000;stop-opacity:1"
       id="path158" /><g
       id="g18"
       transform="matrix(0.0689019,0,0,0.0689019,76.456593,229.56537)"><g
         id="g62"
         inkscape:export-filename="/home/tim/development/ankidroid-timrae/AnkiDroid/src/main/res/drawable-xxxhdpi/product_logo_144dp.png"
         inkscape:export-xdpi="416.94742"
         inkscape:export-ydpi="416.94742"
         transform="matrix(4.8341729,0,0,4.8341729,-281.34886,-288.1167)"><g
           id="g64"><g
             id="inner_11_"
             style="filter:url(#filter20)"
             transform="translate(-1.5886898)"><linearGradient
               gradientTransform="matrix(1,0,0,-1,-2.5776197,192)"
               y2="40.880001"
               x2="170.66859"
               y1="93.285301"
               x1="79.900101"
               gradientUnits="userSpaceOnUse"
               id="SVGID_1_"><stop
                 id="stop70"
                 style="stop-color:#eeeeee;stop-opacity:1;"
                 offset="0" /><stop
                 id="stop72"
                 style="stop-color:#777777;stop-opacity:1;"
                 offset="1" /></linearGradient><path
               inkscape:connector-curvature="0"
               style="fill:url(#SVGID_1_)"
               id="path74"
               d="m 103.12238,68.2 c 0.4,-0.1 1.2,-0.1 3.1,1.5 1.9,1.6 4.3,4.4 6.8,7.5 2.4,3.1 4.9,6.6 7.6,9.5 2.6,3 5.2,5.7 9,6.9 4,1.3 8,0.7 11.4,-0.3 3.9,-0.9 7.9,-2.1 11.7,-3.2 3.8,-1.1 7.4,-2 9.9,-2.1 2.5,-0.2 3.2,0.3 3.4,0.6 0.2,0.3 0.4,0.8 -0.2,2.6 -0.6,1.8 -2,4.5 -3.8,7.2 -2.3,3.5 -5.1,7.4 -7.5,11.2 -2.4,3.8 -4.6,7.5 -4.6,12 0,4 1.8,7.3 3.8,10.7 2,3.4 4.5,6.9 6.7,10.2 2.2,3.3 4.1,6.4 5.1,8.8 0.9,2.3 0.7,3.1 0.5,3.4 -0.2,0.3 -0.9,0.7 -3.4,0.6 -2.5,-0.2 -6.1,-1 -9.9,-2.1 -3.8,-1.1 -7.9,-2.4 -11.7,-3.3 -3.9,-0.9 -7.6,-1.5 -11.4,-0.3 -3.8,1.2 -6.4,3.9 -9,6.9 -2.6,3 -5.2,6.4 -7.6,9.5 -2.4,3.1 -4.9,5.9 -6.8,7.5 -1.9,1.6 -2.7,1.7 -3.1,1.5 -0.4,-0.1 -1,-0.6 -1.6,-3.1 -0.6,-2.5 -0.9,-6.1 -1,-10.1 -0.1,-4 -0.2,-8.2 -0.5,-12.2 -0.399999,-4 -0.899999,-7.7 -3.2,-10.9 -2.3,-3.2 -5.7,-4.9 -9.3,-6.5 -3.6,-1.6 -7.7,-2.9 -11.4,-4.3 -3.7,-1.4 -7.1,-2.8 -9.3,-4.1 -2.1,-1.4 -2.4,-2.1 -2.4,-2.5 0,-0.4 0.3,-1.1 2.4,-2.4 2.2,-1.4 5.7,-2.9 9.3,-4.1 3.7,-1.4 7.8,-2.7 11.4,-4.3 3.6,-1.6 7,-3.2 9.3,-6.4 2.300001,-3.2 2.900001,-7 3.3,-10.9 0.4,-3.9 0.4,-8.2 0.6,-12.2 0.1,-4 0.4,-7.6 1.1,-10.1 0.3,-2.1 0.9,-2.6 1.3,-2.7 z"
               sodipodi:nodetypes="ssccccscsscsssscscscsssscsscssscsccsssccs" /></g></g></g></g></g></svg>
